<?xml version="1.0" standalone="no"?>
<!DOCTYPE svg PUBLIC "-//W3C//DTD SVG 20010904//EN"
 "http://www.w3.org/TR/2001/REC-SVG-20010904/DTD/svg10.dtd">
<svg version="1.0" xmlns="http://www.w3.org/2000/svg"
 width="1024.000000pt" height="1024.000000pt" viewBox="0 0 1024.000000 1024.000000"
 preserveAspectRatio="xMidYMid meet">

<g transform="translate(0.000000,1024.000000) scale(0.100000,-0.100000)"
fill="#000000" stroke="none">
<path d="M0 5120 l0 -5120 5120 0 5120 0 0 5120 0 5120 -5120 0 -5120 0 0
-5120z m6475 3225 c17 -16 25 -35 25 -59 0 -81 -91 -118 -145 -60 -53 57 -16
144 60 144 25 0 44 -8 60 -25z m620 -148 c18 -15 28 -36 32 -64 5 -39 2 -46
-30 -78 -36 -36 -63 -43 -100 -24 -37 19 -57 52 -57 96 0 34 5 46 31 67 39 33
88 34 124 3z m569 -165 c10 -63 72 -177 116 -212 43 -34 127 -74 180 -85 58
-12 56 -17 -24 -40 -137 -40 -219 -118 -260 -250 -33 -106 -31 -105 -50 -31
-43 172 -117 247 -281 287 -38 9 -63 19 -55 22 8 3 40 13 70 23 156 48 223
117 266 273 10 33 20 58 24 56 4 -3 10 -22 14 -43z m-2441 -42 c412 -24 746
-111 1106 -287 445 -219 815 -535 1098 -938 112 -160 243 -387 243 -421 0 -14
-54 -49 -218 -138 -119 -66 -336 -186 -482 -266 -489 -271 -621 -343 -623
-339 -1 2 -17 35 -36 73 -48 95 -111 178 -163 213 -24 16 -80 44 -125 62 -96
38 -138 67 -266 180 -52 46 -135 112 -184 147 -243 174 -614 314 -877 330
-309 19 -652 -122 -919 -376 -347 -330 -525 -800 -504 -1330 17 -411 166 -793
425 -1087 148 -167 286 -272 505 -384 l129 -66 -28 -20 c-37 -25 -870 -494
-1087 -611 l-47 -26 -116 114 c-113 113 -114 115 -93 130 21 15 215 124 604
343 105 59 196 111 204 116 11 7 -8 31 -87 110 -98 98 -117 111 -138 92 -5 -5
-157 -90 -339 -189 -181 -99 -359 -197 -394 -217 -36 -21 -66 -34 -68 -28 -2
6 -31 46 -63 89 -33 44 -60 82 -60 85 0 3 26 22 58 42 83 51 725 407 734 407
16 0 6 22 -48 107 -31 48 -63 98 -71 111 -10 16 -18 20 -26 14 -7 -5 -88 -51
-182 -102 -234 -127 -523 -288 -566 -316 l-37 -23 -61 129 c-33 71 -61 130
-61 133 0 8 170 106 435 252 138 76 278 153 313 172 34 19 62 38 62 41 0 4
-13 52 -29 108 -16 56 -35 129 -42 163 -6 33 -13 61 -16 61 -13 0 -327 -170
-630 -342 -105 -59 -195 -108 -200 -108 -10 0 -71 243 -80 320 -5 47 -5 49 33
73 22 13 84 49 139 79 274 150 382 212 403 231 25 23 30 81 9 108 -15 20 -51
39 -73 39 -10 0 -134 -66 -277 -146 -142 -80 -261 -144 -263 -142 -2 2 -6 74
-10 159 -21 491 102 1042 326 1466 449 846 1251 1425 2180 1573 114 18 186 25
395 38 11 1 95 -3 188 -8z m2712 -1017 c41 -40 38 -96 -7 -127 -75 -53 -160
53 -96 121 26 28 79 31 103 6z m-3414 -911 c499 -307 1267 -778 1436 -881 84
-51 155 -96 158 -101 5 -8 -157 -112 -475 -305 -240 -146 -1051 -647 -1333
-823 -54 -34 -106 -66 -117 -72 -20 -11 -20 -2 -20 1191 0 1014 2 1200 14
1196 7 -3 159 -95 337 -205z m3365 -337 c13 -50 22 -95 20 -101 -2 -6 -69 -47
-148 -92 -153 -86 -1207 -671 -1247 -692 -24 -12 -24 -12 -17 29 3 22 9 80 12
129 7 86 8 89 38 106 114 66 947 525 1216 670 47 25 89 44 94 43 5 -2 19 -43
32 -92z m88 -516 c3 -34 6 -103 6 -153 l0 -92 -72 -41 c-40 -22 -161 -90 -268
-150 -107 -61 -292 -164 -410 -231 -118 -66 -233 -130 -255 -143 -22 -12 -101
-56 -175 -96 -74 -41 -148 -83 -165 -93 -16 -10 -183 -100 -370 -200 -187
-101 -430 -237 -540 -303 -278 -167 -803 -454 -1300 -712 -231 -119 -481 -251
-556 -291 -75 -41 -147 -74 -161 -74 -14 0 -37 10 -52 21 -23 18 -27 28 -24
62 4 52 19 64 263 199 671 372 1377 788 1985 1170 369 232 480 296 1025 603
242 136 505 284 585 330 80 45 201 112 270 150 69 37 139 76 155 86 17 10 35
19 41 19 6 0 14 -27 18 -61z m-74 -875 c0 -19 -47 -189 -86 -309 l-45 -140
-117 -64 c-442 -242 -764 -418 -932 -511 -107 -59 -307 -169 -445 -244 -137
-76 -262 -150 -277 -167 -33 -35 -36 -76 -8 -107 39 -42 54 -37 291 94 113 63
215 114 228 114 34 0 71 -43 71 -82 -1 -60 50 -29 -750 -461 -374 -201 -479
-253 -592 -291 -251 -82 -549 -86 -839 -11 -101 26 -269 85 -269 95 0 3 12 13
28 22 41 24 681 381 982 548 146 80 348 193 450 249 102 57 255 141 340 188
85 47 193 107 240 133 102 57 1267 700 1495 825 88 49 174 96 190 106 32 19
45 22 45 13z"/>
<path d="M6717 7173 c-2 -5 -14 -38 -26 -75 -41 -124 -107 -189 -233 -227 -40
-12 -80 -25 -88 -28 -8 -3 14 -13 50 -22 150 -39 224 -107 274 -255 11 -35 25
-64 31 -65 5 -1 13 15 18 35 13 63 65 160 106 197 49 44 99 70 169 88 28 7 52
16 52 20 0 4 -23 12 -52 18 -78 17 -132 45 -177 91 -44 45 -89 132 -98 186 -6
34 -18 51 -26 37z"/>
<path d="M6410 6073 c-8 -3 -25 -15 -37 -26 -79 -72 14 -205 110 -156 51 26
73 91 47 140 -19 35 -80 57 -120 42z"/>
</g>
</svg>
