<?xml version="1.0" standalone="no"?>
<!DOCTYPE svg PUBLIC "-//W3C//DTD SVG 20010904//EN"
 "http://www.w3.org/TR/2001/REC-SVG-20010904/DTD/svg10.dtd">
<svg version="1.0" xmlns="http://www.w3.org/2000/svg"
 width="500.000000pt" height="500.000000pt" viewBox="0 0 500.000000 500.000000"
 preserveAspectRatio="xMidYMid meet">

<g transform="translate(0.000000,500.000000) scale(0.100000,-0.100000)"
fill="#000000" stroke="none">
<path d="M3106 4074 c-9 -8 -16 -22 -16 -29 0 -17 27 -45 44 -45 19 0 36 22
36 45 0 41 -36 58 -64 29z"/>
<path d="M3402 3998 c-30 -30 -3 -82 40 -76 29 4 47 50 28 72 -15 19 -51 21
-68 4z"/>
<path d="M3721 3905 c-6 -22 -18 -50 -26 -63 -17 -24 -84 -62 -110 -62 -8 0
-15 -4 -15 -10 0 -5 10 -10 23 -10 52 0 127 -75 127 -127 0 -38 17 -34 29 7
15 52 69 105 118 117 l38 10 -30 11 c-77 29 -105 57 -130 127 l-13 40 -11 -40z"/>
<path d="M2265 3886 c-385 -64 -732 -280 -960 -601 -60 -84 -148 -255 -183
-355 -48 -139 -74 -294 -76 -450 0 -76 2 -141 5 -144 3 -3 61 25 130 64 68 38
127 70 131 70 11 0 48 -38 48 -48 0 -17 -45 -48 -168 -118 -120 -67 -127 -72
-125 -100 4 -58 27 -144 39 -144 7 0 50 22 96 48 138 80 299 164 304 160 5 -6
45 -161 42 -163 -4 -2 -100 -56 -153 -85 -170 -94 -235 -134 -235 -146 0 -8
11 -37 25 -65 l26 -50 72 39 c40 22 126 69 191 106 66 36 122 66 125 66 11 -1
72 -101 67 -109 -3 -5 -61 -39 -128 -76 -68 -38 -153 -86 -191 -107 l-67 -39
30 -45 c17 -24 34 -43 38 -41 4 2 39 22 77 44 39 22 106 59 150 83 44 23 99
54 123 68 l43 25 50 -49 c27 -26 49 -51 49 -55 0 -4 -90 -58 -199 -119 -222
-126 -213 -113 -134 -184 l44 -39 32 16 c18 9 50 27 72 39 22 13 131 74 243
137 111 62 204 116 206 120 3 3 -33 26 -79 49 -135 69 -266 205 -338 347 -72
144 -106 334 -87 487 13 115 23 152 62 251 96 243 302 415 538 449 182 27 427
-65 615 -231 33 -29 93 -69 134 -88 64 -31 78 -43 112 -96 22 -33 41 -62 43
-64 3 -3 157 80 495 267 73 41 136 80 138 87 6 14 -38 93 -110 203 -64 96
-250 282 -348 348 -169 113 -337 186 -522 227 -98 22 -385 29 -492 11z m1048
-453 c22 -41 61 -71 103 -79 34 -6 48 -24 19 -24 -26 0 -91 -38 -107 -62 -8
-13 -21 -40 -29 -60 -7 -21 -16 -38 -19 -38 -3 0 -12 20 -19 45 -15 53 -68
102 -118 111 -43 8 -42 20 2 28 42 8 98 55 113 93 5 16 13 37 17 48 7 19 8 18
15 -5 4 -14 14 -39 23 -57z m-127 -484 c17 -19 17 -23 3 -47 -28 -50 -89 -37
-89 19 0 47 53 65 86 28z"/>
<path d="M3821 3391 c-13 -24 8 -55 34 -50 28 6 42 34 26 53 -18 22 -48 20
-60 -3z"/>
<path d="M2040 2481 c0 -320 3 -581 6 -581 3 0 94 55 202 122 108 67 233 144
277 171 44 27 164 101 268 165 103 63 187 118 187 121 0 3 -44 33 -98 65 -53
33 -261 160 -462 284 -201 123 -368 226 -372 229 -5 2 -8 -257 -8 -576z"/>
<path d="M3775 2811 c-27 -15 -167 -92 -310 -170 -143 -79 -265 -148 -271
-154 -7 -7 -15 -38 -19 -70 l-7 -59 44 25 c40 23 230 128 373 207 85 47 269
151 273 155 5 5 -20 95 -27 95 -3 0 -28 -13 -56 -29z"/>
<path d="M3835 2547 c-22 -13 -103 -59 -180 -102 -480 -268 -589 -331 -785
-455 -200 -126 -593 -359 -935 -553 -82 -46 -154 -92 -160 -101 -8 -14 -5 -22
14 -37 24 -19 24 -19 65 5 22 13 122 65 221 116 277 143 556 295 700 380 72
42 220 126 330 185 110 59 245 134 300 165 55 31 123 70 150 85 28 15 114 63
193 107 l142 80 0 74 c0 41 -3 74 -7 74 -5 0 -26 -11 -48 -23z"/>
<path d="M3790 2084 c-25 -14 -67 -38 -95 -53 -27 -15 -115 -64 -195 -108
-211 -117 -625 -346 -695 -384 -352 -193 -770 -429 -773 -437 -7 -21 158 -64
265 -69 200 -11 262 11 718 259 181 98 190 105 190 133 0 47 -31 43 -142 -19
-107 -60 -127 -65 -141 -40 -24 43 -14 50 348 247 96 52 192 104 213 116 20
11 97 53 170 93 72 39 133 72 135 74 6 4 51 143 57 178 4 20 3 36 -1 36 -5 0
-29 -12 -54 -26z"/>
</g>
</svg>
